<svg xmlns="http://www.w3.org/2000/svg" width="168" height="168" version="1.0" viewBox="0 0 126 126" fill="#2463eb"><path d="M50.5 1.6c-22.6 5-41 22-47.4 43.9C2 49.3.9 54.5.8 57l-.3 4.5h20l.6-4.5c2-13.6 11.4-26.2 23.8-32.2 5.6-2.7 8-3.3 15.7-3.6 12.7-.6 21.2 2.3 30.2 10.2l3.3 2.9-4.8 4.9-4.7 4.8H117V28.5c0-8.5-.4-15.5-.8-15.5s-2.3 1.6-4.2 3.5l-3.3 3.4-3.6-3.1C90 3.5 68.6-2.4 50.5 1.6"/><path d="M53 63c0 10.7.4 16 1.1 16C56 79 83 63.5 82.7 62.6c-.5-1.4-25.9-15.5-27.9-15.6-1.6 0-1.8 1.4-1.8 16"/><path d="M104.6 69.3c-3 23.7-28.7 40.6-52.2 34.3-6.6-1.7-14.4-6-18-9.7L31.6 91l4.9-5 5-5.1-16 .3-16 .3-.3 16-.3 16 4-3.9 3.9-3.8 5.9 4.7c6.7 5.5 19.4 11.8 27.1 13.4 27.7 5.8 56.2-8.1 69.1-33.6 3.4-6.8 6.1-16.6 6.1-22.6V64h-19.8z"/></svg>